<mxfile host="app.diagrams.net" modified="2024-06-15T16:15:18.341Z" agent="Mozilla/5.0 (Macintosh; Intel Mac OS X 10_15_7) AppleWebKit/537.36 (KHTML, like Gecko) Chrome/126.0.0.0 Safari/537.36 Edg/126.0.0.0" version="24.5.4" etag="DtNaD1EjYyGVegkVhSdu" type="github">
  <diagram name="Page-1" id="5IOn9g5Ky148nhXx7qe2">
    <mxGraphModel>
      <root>
        <mxCell id="0" />
        <mxCell id="1" parent="0" />
      </root>
    </mxGraphModel>
  </diagram>
</mxfile>
